<?xml version="1.0" standalone="no"?>
<!DOCTYPE svg PUBLIC "-//W3C//DTD SVG 20010904//EN"
 "http://www.w3.org/TR/2001/REC-SVG-20010904/DTD/svg10.dtd">
<svg version="1.0" xmlns="http://www.w3.org/2000/svg"
 width="1024.000000pt" height="1024.000000pt" viewBox="0 0 1024.000000 1024.000000"
 preserveAspectRatio="xMidYMid meet">
<metadata>
Created by potrace 1.14, written by Peter Selinger 2001-2017
</metadata>
<g transform="translate(0.000000,1024.000000) scale(0.100000,-0.100000)"
fill="#000000" stroke="none">
<path d="M0 5120 l0 -5120 5120 0 5120 0 0 5120 0 5120 -5120 0 -5120 0 0
-5120z m6680 3646 c0 -2 -13 -9 -30 -15 -35 -12 -41 -5 -7 9 25 10 37 12 37 6z
m-535 -47 c-33 -18 -79 -45 -103 -61 -53 -36 -172 -147 -172 -160 0 -5 5 -6
12 -2 7 4 2 -7 -11 -24 -12 -18 -26 -30 -31 -27 -5 3 -16 -8 -25 -25 -9 -17
-20 -28 -25 -25 -6 4 -7 -1 -3 -11 4 -12 3 -15 -5 -10 -8 5 -10 1 -5 -10 4
-12 3 -15 -5 -10 -8 5 -10 1 -5 -10 5 -13 3 -15 -7 -9 -8 5 -11 4 -6 -3 4 -6
4 -23 0 -37 -5 -21 -9 -24 -16 -13 -7 9 -8 7 -4 -7 3 -11 -1 -45 -9 -75 -8
-33 -14 -45 -14 -30 -1 22 -3 23 -12 7 -8 -13 -7 -22 1 -32 6 -7 7 -16 3 -18
-17 -10 -28 8 -30 48 -1 33 0 36 7 15 6 -18 7 -9 5 30 -2 37 3 69 16 98 10 23
15 50 12 59 -5 12 -3 14 8 8 8 -4 11 -5 7 0 -4 4 -1 19 7 34 16 30 113 132
165 174 22 18 26 24 11 17 -45 -23 -168 -155 -209 -226 -36 -61 -92 -220 -92
-259 0 -7 -7 -18 -16 -25 -13 -12 -14 -7 -9 41 3 30 8 69 11 87 8 54 -4 36
-17 -25 -6 -32 -12 -63 -12 -70 0 -7 -4 -10 -9 -7 -4 3 -8 -4 -8 -15 0 -11 -4
-23 -10 -26 -14 -9 -12 7 5 48 8 19 17 50 20 68 5 34 5 34 -9 9 -8 -14 -15
-28 -16 -32 -1 -4 -7 -29 -14 -55 -7 -25 -17 -48 -23 -50 -8 -3 -7 11 3 43 8
26 14 59 14 73 0 18 3 22 9 13 5 -9 8 -3 7 17 -1 17 -2 31 -4 31 -8 0 -44 -99
-52 -144 l-9 -51 4 50 c2 28 13 77 24 110 14 44 16 55 5 40 -9 -11 -18 -32
-21 -47 -3 -16 -9 -28 -14 -28 -5 0 -9 -16 -9 -35 0 -19 -4 -43 -9 -53 -6 -9
-13 -30 -16 -46 -3 -15 -8 -26 -11 -23 -3 3 0 22 6 44 15 47 29 136 20 126 -3
-5 -12 -33 -19 -63 -8 -30 -20 -66 -28 -80 l-14 -25 7 25 c4 14 8 41 9 60 3
53 4 56 16 40 9 -13 10 -12 5 3 -8 23 21 80 36 71 7 -4 8 -3 4 4 -4 6 1 23 10
37 9 14 13 25 10 25 -10 0 -75 -106 -124 -200 -36 -71 -42 -79 -37 -47 3 21 9
46 12 55 4 14 3 14 -5 3 -8 -11 -11 -10 -14 5 -2 11 -11 -6 -22 -41 -24 -78
-48 -128 -55 -116 -6 9 -44 -11 -38 -20 1 -2 -1 -2 -5 1 -5 3 -1 30 8 60 8 30
19 74 24 98 5 23 15 52 21 65 9 17 9 20 -1 11 -6 -7 -27 -63 -46 -125 -31
-101 -51 -146 -60 -136 -2 2 3 30 11 62 9 32 14 63 12 69 -4 11 -37 -103 -40
-135 -1 -10 -5 -19 -9 -19 -5 0 -6 19 -3 43 l5 42 -11 -39 c-8 -25 -21 -44
-40 -55 -16 -9 -29 -19 -29 -23 0 -5 -4 -8 -9 -8 -8 0 -3 29 26 150 3 14 3 22
-1 19 -3 -3 -16 -45 -29 -94 -24 -96 -46 -123 -48 -58 l-1 38 -14 -47 c-8 -25
-22 -49 -30 -52 -11 -4 -14 -1 -10 12 3 9 8 34 12 55 4 22 9 34 13 29 3 -6 7
11 7 36 1 26 9 74 18 107 8 32 14 61 12 63 -5 5 -30 -82 -51 -178 -31 -144
-31 -145 -82 -177 -27 -16 -60 -37 -74 -46 -21 -14 -26 -15 -26 -2 0 8 4 12 8
9 16 -9 58 27 52 44 -6 19 -32 42 -46 42 -4 0 -5 -6 -1 -12 4 -7 -1 -5 -12 4
-10 9 -23 17 -29 17 -6 1 -9 32 -7 78 1 42 0 74 -3 71 -3 -3 -6 -28 -7 -55 0
-51 -16 -98 -19 -58 -1 11 -1 36 -1 55 1 33 0 32 -10 -10 -11 -49 -25 -73 -39
-64 -5 3 -9 -4 -9 -15 0 -11 -4 -23 -10 -26 -5 -3 -10 -13 -10 -21 0 -8 3 -13
8 -10 4 2 6 -14 3 -37 -3 -33 -5 -38 -12 -22 -5 14 -8 7 -8 -27 -1 -26 4 -50
11 -54 7 -5 8 -3 3 6 -5 9 -4 11 3 6 12 -7 47 12 53 29 2 6 10 9 17 7 8 -2 11
1 7 7 -4 7 0 8 10 5 9 -4 15 -3 13 2 -2 5 0 10 5 12 4 1 8 -1 8 -5 3 -14 -150
-105 -162 -97 -11 7 -8 131 6 224 5 32 4 33 -6 10 -19 -44 -27 -123 -20 -193
6 -56 5 -65 -6 -54 -9 9 -14 46 -15 118 -1 79 -4 96 -10 69 -4 -19 -6 -80 -4
-135 l5 -100 -12 65 -11 65 -7 -50 c-6 -37 -7 -26 -5 40 2 54 0 78 -4 60 -14
-57 -11 -142 6 -156 14 -12 14 -14 -2 -26 -14 -10 -19 -10 -30 5 -7 9 -13 24
-13 32 0 10 3 9 8 -4 4 -12 8 10 9 55 2 88 17 166 43 227 11 25 18 47 16 49
-6 5 -43 -84 -55 -132 -6 -22 -14 -71 -18 -110 -8 -66 -9 -68 -15 -30 -5 36
-6 37 -8 9 -2 -50 20 -144 33 -138 6 3 0 -4 -14 -16 l-25 -22 -21 69 c-29 97
-36 164 -25 259 13 112 51 199 117 272 57 64 152 142 219 182 l40 24 -37 -42
c-21 -23 -48 -58 -61 -79 -35 -57 -98 -173 -94 -173 2 0 30 43 63 96 96 155
226 266 462 393 99 53 252 128 242 118 -3 -3 -43 -33 -90 -67 -159 -118 -283
-267 -315 -380 -6 -24 -6 -24 19 5 15 17 51 62 81 101 115 149 259 265 437
349 84 39 278 115 296 115 3 0 -22 -17 -57 -37 -92 -55 -180 -132 -226 -197
-22 -32 -61 -86 -86 -121 -25 -34 -49 -69 -53 -76 -14 -25 34 34 92 115 91
128 140 170 289 244 112 57 387 138 473 141 19 1 9 -7 -35 -30z m394 27 c-2
-2 -15 -9 -29 -15 -24 -11 -24 -11 -6 3 16 13 49 24 35 12z m-114 -26 c-3 -5
-12 -10 -18 -10 -7 0 -6 4 3 10 19 12 23 12 15 0z m-75 -5 c0 -2 -10 -9 -22
-15 -22 -11 -22 -10 -4 4 21 17 26 19 26 11z m300 1 c0 -2 -12 -11 -27 -20
l-28 -17 24 20 c23 21 31 25 31 17z m110 -110 c0 -2 -8 -10 -17 -17 -16 -13
-17 -12 -4 4 13 16 21 21 21 13z m60 -19 c0 -2 -19 -21 -42 -42 l-43 -40 40
43 c36 39 45 47 45 39z m888 -64 c-10 -2 -26 -2 -35 0 -10 3 -2 5 17 5 19 0
27 -2 18 -5z m-1118 -17 c0 -2 -8 -10 -17 -17 -16 -13 -17 -12 -4 4 13 16 21
21 21 13z m1227 -42 c-3 -3 -12 -4 -19 -1 -8 3 -5 6 6 6 11 1 17 -2 13 -5z
m-1994 -69 c-9 -19 -18 -33 -21 -31 -4 5 26 66 33 66 3 0 -3 -16 -12 -35z
m270 -30 c-3 -9 -8 -14 -10 -11 -3 3 -2 9 2 15 9 16 15 13 8 -4z m-402 -46
c-12 -26 -18 -56 -15 -70 5 -19 3 -21 -5 -9 -8 12 -11 5 -11 -27 0 -24 -4 -43
-10 -43 -13 0 -13 15 1 65 14 49 50 137 55 132 3 -2 -5 -24 -15 -48z m1217 31
c-7 -10 -14 -17 -17 -15 -4 4 18 35 25 35 2 0 -1 -9 -8 -20z m902 13 c-56 -8
-70 -14 -70 -27 0 -7 -9 -21 -20 -31 -11 -10 -17 -21 -15 -25 3 -4 -4 -19 -16
-33 -11 -15 -20 -29 -19 -32 2 -24 -1 -35 -9 -31 -5 4 -14 -6 -19 -21 -6 -16
-11 -21 -11 -13 -1 8 -5 20 -9 27 -10 15 -185 50 -297 58 -49 4 -103 9 -120
11 -16 1 -113 6 -215 10 -210 7 -522 -13 -731 -46 -178 -29 -466 -102 -626
-159 -134 -48 -177 -65 -332 -130 -40 -17 -78 -28 -84 -24 -5 3 -7 2 -4 -4 8
-13 -61 -46 -76 -37 -7 4 -9 3 -5 -1 5 -5 -45 -36 -110 -70 -171 -91 -392
-236 -589 -388 -7 -5 -13 -7 -13 -5 0 17 306 238 478 347 141 88 190 114 204
105 6 -4 8 -3 5 3 -7 10 130 79 313 156 292 124 672 223 995 259 121 13 667
17 810 6 82 -7 339 -43 375 -53 10 -3 23 13 39 47 30 64 95 109 155 107 25 -1
31 -3 16 -6z m-570 -7 c0 -2 -8 -10 -17 -17 -16 -13 -17 -12 -4 4 13 16 21 21
21 13z m-95 -45 c-3 -6 -11 -11 -17 -11 -6 0 -6 6 2 15 14 17 26 13 15 -4z
m-3185 -6 c-6 -8 -9 -22 -6 -33 5 -14 -11 -32 -73 -80 -93 -72 -244 -220 -324
-319 -84 -104 -147 -202 -140 -221 4 -9 2 -13 -4 -9 -6 4 -10 -1 -9 -11 2 -31
27 -37 48 -11 11 15 6 -3 -13 -46 -83 -184 -145 -421 -155 -595 -4 -62 -13
-102 -34 -150 -15 -36 -31 -74 -34 -84 -11 -31 -24 -7 -43 79 -23 101 -25 429
-5 515 79 325 263 606 529 808 82 62 188 129 212 134 8 2 23 11 33 21 22 21
35 23 18 2z m3117 9 c-3 -3 -12 -4 -19 -1 -8 3 -5 6 6 6 11 1 17 -2 13 -5z
m-1306 -35 c-5 -13 -10 -19 -10 -12 -1 15 10 45 15 40 3 -2 0 -15 -5 -28z m4
-59 c-7 -25 -14 -38 -14 -29 -1 18 20 82 25 77 2 -2 -3 -24 -11 -48z m302 8
c-3 -8 -6 -5 -6 6 -1 11 2 17 5 13 3 -3 4 -12 1 -19z m596 5 c-7 -2 -21 -2
-30 0 -10 3 -4 5 12 5 17 0 24 -2 18 -5z m70 0 c-7 -2 -21 -2 -30 0 -10 3 -4
5 12 5 17 0 24 -2 18 -5z m162 -23 c9 -16 13 -30 11 -30 -3 0 -12 14 -21 30
-9 17 -13 30 -11 30 3 0 12 -13 21 -30z m-365 -25 l25 -30 -33 29 c-17 17 -32
34 -32 40 0 6 3 6 8 1 4 -6 18 -23 32 -40z m51 13 c17 -24 18 -29 6 -19 -18
14 -42 51 -33 51 3 0 15 -15 27 -32z m603 16 c3 -8 2 -12 -4 -9 -6 3 -10 10
-10 16 0 14 7 11 14 -7z m50 0 c5 -14 4 -15 -9 -4 -17 14 -19 20 -6 20 5 0 12
-7 15 -16z m-1264 -2 c0 -4 -9 -8 -20 -8 -11 0 -20 4 -20 8 0 4 9 8 20 8 11 0
20 -4 20 -8z m467 -18 c12 -26 12 -26 -7 -9 -20 18 -26 35 -12 35 4 0 12 -12
19 -26z m387 11 c5 0 15 -11 23 -25 l15 -25 -20 22 c-11 12 -22 20 -24 17 -3
-2 -11 3 -19 13 -12 15 -12 16 1 8 8 -6 19 -10 24 -10z m-1081 -47 c-2 -5 -10
-8 -16 -7 -8 0 -8 2 -1 5 6 3 10 17 8 32 -4 27 -4 27 5 2 4 -14 6 -28 4 -32z
m144 30 c-3 -8 -6 -5 -6 6 -1 11 2 17 5 13 3 -3 4 -12 1 -19z m487 -6 l19 -27
-29 25 c-16 14 -31 26 -33 28 -2 1 2 2 10 2 8 0 23 -13 33 -28z m51 -19 l28
-38 -31 29 c-18 17 -32 33 -32 38 0 15 7 9 35 -29z m-640 17 c3 -5 1 -10 -4
-10 -6 0 -11 5 -11 10 0 6 2 10 4 10 3 0 8 -4 11 -10z m449 -25 l17 -30 -20
24 c-12 13 -21 28 -21 34 0 12 0 11 24 -28z m96 10 c14 -18 13 -19 -1 -8 -9 7
-19 10 -23 6 -4 -4 -4 1 0 10 3 10 7 17 8 15 1 -2 8 -12 16 -23z m171 8 c13
-16 12 -17 -3 -4 -10 7 -18 15 -18 17 0 8 8 3 21 -13z m79 -8 c13 -14 21 -25
18 -25 -2 0 -15 11 -28 25 -13 14 -21 25 -18 25 2 0 15 -11 28 -25z m205 13
c5 4 5 1 1 -6 -6 -10 -11 -10 -22 -1 -8 6 -14 14 -14 16 0 3 6 0 13 -6 8 -6
18 -7 22 -3z m476 -5 c13 -16 12 -17 -3 -4 -10 7 -18 15 -18 17 0 8 8 3 21
-13z m75 -15 l29 -33 -32 29 c-31 28 -38 36 -30 36 2 0 16 -15 33 -32z m-1046
2 c6 -11 8 -20 6 -20 -3 0 -10 9 -16 20 -6 11 -8 20 -6 20 3 0 10 -9 16 -20z
m-145 -32 c38 -41 38 -41 5 -13 -19 17 -36 33 -38 38 -2 4 -11 7 -20 7 -10 0
-13 -3 -7 -8 6 -4 19 -18 30 -32 18 -23 17 -23 -11 3 -16 15 -39 27 -50 28
-15 1 -14 3 6 9 41 13 44 12 85 -32z m-504 13 c5 8 9 9 9 3 0 -14 -27 -50 -33
-44 -3 3 -2 19 1 35 4 22 7 25 10 11 3 -15 6 -16 13 -5z m580 -8 c13 -16 12
-17 -3 -4 -10 7 -18 15 -18 17 0 8 8 3 21 -13z m214 -13 c14 -13 23 -26 20
-28 -3 -3 2 -14 12 -24 34 -38 5 -16 -41 31 -48 49 -40 67 9 21z m46 13 c13
-16 12 -17 -3 -4 -10 7 -18 15 -18 17 0 8 8 3 21 -13z m395 -6 c3 -21 1 -21
-20 2 -17 19 -17 19 0 17 9 -2 18 -10 20 -19z m-821 -17 c10 -11 16 -20 13
-20 -3 0 -13 9 -23 20 -10 11 -16 20 -13 20 3 0 13 -9 23 -20z m2060 0 c66
-24 46 -25 -30 -1 -33 11 -51 19 -40 19 11 0 43 -8 70 -18z m-1619 -22 l29
-33 -32 29 c-31 28 -38 36 -30 36 2 0 16 -15 33 -32z m115 15 c13 -16 12 -17
-3 -4 -10 7 -18 15 -18 17 0 8 8 3 21 -13z m-1242 -42 c-7 -23 -18 -46 -26
-52 -14 -13 -18 1 -4 17 5 5 14 26 21 47 16 51 25 40 9 -12z m972 32 c13 -16
12 -17 -3 -4 -10 7 -18 15 -18 17 0 8 8 3 21 -13z m404 -3 c10 -11 16 -20 13
-20 -3 0 -13 9 -23 20 -10 11 -16 20 -13 20 3 0 13 -9 23 -20z m1246 1 c-7 -5
-11 -13 -8 -18 3 -5 0 -10 -8 -10 -10 0 -11 5 -4 19 5 10 15 18 22 18 8 0 8
-3 -2 -9z m-2687 -48 c-4 -27 -11 -52 -15 -58 -9 -9 -6 17 7 83 8 41 14 23 8
-25z m506 12 c13 -14 21 -25 18 -25 -2 0 -15 11 -28 25 -13 14 -21 25 -18 25
2 0 15 -11 28 -25z m2420 10 c14 -8 21 -14 15 -14 -5 0 -21 6 -35 14 -14 8
-20 14 -15 14 6 0 21 -6 35 -14z m-2105 -35 c21 -22 37 -40 34 -40 -3 0 -23
18 -44 40 -21 22 -37 40 -34 40 3 0 23 -18 44 -40z m-415 5 c13 -14 19 -25 14
-25 -8 1 -50 50 -41 50 2 0 14 -11 27 -25z m100 -42 c0 -9 -37 18 -60 43 -22
24 -20 23 18 -6 23 -18 42 -35 42 -37z m455 37 c10 -11 16 -20 13 -20 -3 0
-13 9 -23 20 -10 11 -16 20 -13 20 3 0 13 -9 23 -20z m246 3 c13 -16 12 -17
-3 -4 -10 7 -18 15 -18 17 0 8 8 3 21 -13z m100 0 c13 -16 12 -17 -3 -4 -10 7
-18 15 -18 17 0 8 8 3 21 -13z m1576 11 c-3 -3 -12 -4 -19 -1 -8 3 -5 6 6 6
11 1 17 -2 13 -5z m113 -20 c0 -2 -9 0 -20 6 -11 6 -20 13 -20 16 0 2 9 0 20
-6 11 -6 20 -13 20 -16z m-2640 -9 c14 -19 14 -19 -2 -6 -10 7 -18 18 -18 24
0 6 1 8 3 6 1 -2 9 -13 17 -24z m581 8 c13 -16 12 -17 -3 -4 -10 7 -18 15 -18
17 0 8 8 3 21 -13z m1772 10 c-7 -2 -21 -2 -30 0 -10 3 -4 5 12 5 17 0 24 -2
18 -5z m124 1 c-3 -3 -12 -4 -19 -1 -8 3 -5 6 6 6 11 1 17 -2 13 -5z m-2507
-20 c0 -8 -5 -12 -10 -9 -6 4 -8 11 -5 16 9 14 15 11 15 -7z m150 -54 c33 -17
60 -33 60 -35 0 -8 -122 55 -142 73 -10 8 -18 19 -18 24 0 4 9 -1 20 -12 11
-11 47 -33 80 -50z m85 50 c10 -11 16 -20 13 -20 -3 0 -13 9 -23 20 -10 11
-16 20 -13 20 3 0 13 -9 23 -20z m-254 -27 l34 -37 -37 30 c-20 16 -37 32 -37
37 -2 12 4 8 40 -30z m2040 19 c-7 -2 -18 1 -23 6 -8 8 -4 9 13 5 13 -4 18 -8
10 -11z m745 -33 c16 -6 45 -12 64 -13 29 -1 41 -10 86 -66 29 -35 51 -66 49
-68 -9 -9 -285 179 -285 195 0 2 13 -5 29 -16 15 -11 41 -26 57 -32z m-4001
-11 c-44 -80 -57 -150 -53 -272 3 -81 10 -127 26 -171 41 -111 21 -126 -29
-22 -37 79 -62 195 -57 260 5 65 45 152 93 206 21 22 39 41 40 41 2 0 -7 -19
-20 -42z m1151 21 c10 -12 41 -36 68 -55 34 -23 43 -33 28 -31 -11 0 -18 5
-16 9 3 4 3 8 0 8 -2 0 -12 3 -22 7 -13 5 -15 3 -9 -8 5 -8 -1 -6 -13 4 -11
11 -25 16 -30 13 -5 -3 -16 2 -23 11 -12 14 -12 16 0 9 9 -6 12 -5 9 5 -3 8
-11 13 -18 11 -7 -2 -20 0 -29 3 -14 6 -14 8 3 21 26 18 29 18 52 -7z m115 4
c13 -16 12 -17 -3 -4 -10 7 -18 15 -18 17 0 8 8 3 21 -13z m2036 11 c-3 -3
-12 -4 -19 -1 -8 3 -5 6 6 6 11 1 17 -2 13 -5z m-1782 -22 c-3 -3 -11 0 -18 7
-9 10 -8 11 6 5 10 -3 15 -9 12 -12z m1722 12 c-3 -3 -12 -4 -19 -1 -8 3 -5 6
6 6 11 1 17 -2 13 -5z m-1897 -41 c0 -2 -10 2 -22 9 -13 7 -27 11 -31 10 -5
-1 -6 2 -2 8 5 9 55 -15 55 -27z m180 0 c0 -7 -39 17 -46 28 -3 6 5 3 20 -6
14 -10 26 -19 26 -22z m1757 31 c-3 -3 -12 -4 -19 -1 -8 3 -5 6 6 6 11 1 17
-2 13 -5z m-2213 -46 l16 -33 -20 24 c-11 13 -20 27 -20 32 0 17 9 9 24 -23z
m-49 -16 c5 -29 14 -42 27 -42 6 0 5 7 -3 18 -13 15 -12 16 3 4 9 -7 15 -22
13 -33 -2 -12 4 -23 17 -30 16 -9 19 -8 12 3 -14 22 -13 37 3 31 8 -3 11 -8 5
-12 -10 -6 13 -49 23 -44 3 1 26 -7 52 -18 52 -22 183 -59 210 -59 10 0 -27
16 -82 35 -55 19 -102 35 -104 35 -2 0 -2 2 1 5 3 3 30 -3 59 -14 134 -48 189
-60 285 -64 55 -2 88 -1 74 4 -14 4 -61 7 -106 8 -44 1 -84 4 -88 9 -4 4 -24
12 -44 17 -31 9 -19 11 74 10 62 0 110 -3 108 -6 -4 -7 21 -19 39 -19 7 0 6 5
-3 10 -12 8 -9 9 10 6 105 -21 148 -27 240 -35 58 -5 107 -7 109 -6 3 4 -29
10 -139 23 l-75 10 80 -5 c44 -2 114 -6 155 -7 73 -3 409 -31 520 -43 l55 -6
-60 -19 c-33 -11 -98 -28 -145 -39 -201 -48 -881 -31 -1055 26 -13 4 -11 1 5
-8 40 -24 186 -55 305 -66 61 -6 209 -11 330 -12 l220 -2 -73 -23 c-141 -46
-259 -65 -437 -71 -165 -6 -183 -12 -80 -28 49 -8 49 -8 20 -17 -194 -57 -605
-45 -972 28 -143 28 -177 29 -217 9 -25 -14 -27 -14 -16 0 7 8 19 15 26 15 8
0 14 4 14 9 0 5 15 14 33 20 42 13 130 13 122 1 -4 -6 8 -10 27 -9 l33 1 -30
13 c-16 7 -58 19 -92 26 -46 9 -60 16 -53 24 8 9 4 11 -15 7 -16 -3 -34 2 -48
14 -19 17 -20 17 -8 1 12 -16 12 -20 -2 -35 -16 -15 -17 -15 -17 1 0 10 5 15
10 12 6 -3 10 -2 10 4 0 20 -23 23 -37 5 -8 -10 -18 -20 -23 -20 -6 -1 -15 -2
-21 -3 -5 0 -7 -6 -3 -13 4 -7 3 -8 -4 -4 -11 6 -16 -6 -13 -27 0 -4 -2 -6 -6
-5 -5 2 -9 -1 -10 -7 -3 -10 1 -12 38 -14 11 0 23 -9 26 -20 3 -14 18 -20 56
-26 42 -6 48 -9 32 -16 -17 -8 -16 -8 6 -4 15 3 77 -6 137 -20 92 -21 136 -25
257 -24 81 0 149 -2 151 -4 2 -2 -51 -12 -119 -22 -67 -9 -187 -35 -265 -56
-79 -22 -150 -39 -157 -39 -7 0 -15 -4 -17 -9 -1 -6 -16 -12 -33 -15 -16 -2
-31 -5 -32 -6 -2 -2 -6 -3 -10 -5 -5 -1 -20 -7 -35 -13 -15 -6 -44 -10 -65 -8
-21 2 -54 4 -73 6 -26 2 -18 5 30 11 115 14 130 18 123 34 -3 10 1 15 13 15
49 1 -18 19 -106 28 l-95 11 -23 -27 -22 -27 17 43 18 42 60 -5 60 -4 -54 9
c-56 11 -124 61 -102 75 13 8 33 -3 26 -14 -5 -9 94 -32 129 -30 12 0 -5 6
-36 13 -32 7 -61 16 -65 21 -5 4 3 5 17 3 14 -3 36 -2 50 2 23 6 20 8 -24 21
l-48 14 80 60 c128 95 187 128 209 116 25 -13 108 -32 97 -21 -5 4 -29 13 -54
18 -28 6 -36 10 -20 11 14 0 67 -10 119 -24 52 -14 95 -24 97 -22 2 2 -37 16
-86 32 -59 19 -86 32 -78 37 8 5 0 7 -20 4 -33 -4 -33 -4 -16 15 19 21 40 26
28 7 -4 -7 -3 -8 5 -4 6 4 9 12 6 17 -6 8 9 13 28 10 5 -1 6 3 3 8 -18 28 28
18 123 -28 103 -49 378 -136 466 -146 30 -4 26 -2 -17 10 -181 46 -321 90
-387 122 -42 20 -79 37 -83 37 -4 1 -13 7 -19 14 -7 6 -20 12 -28 12 -12 0
-13 2 -2 13 10 10 15 8 27 -7 8 -11 14 -16 14 -11 0 4 8 2 18 -6 25 -21 114
-58 215 -89 74 -23 46 -4 -36 24 -107 37 -134 51 -148 79 l-12 22 24 -21 c32
-29 113 -63 158 -68 20 -2 26 -1 13 1 -12 2 -20 9 -17 14 3 5 0 6 -8 3 -19 -7
-133 49 -129 64 1 7 -4 13 -10 13 -7 1 -19 2 -27 3 -8 0 -16 6 -18 12 -4 13
28 15 44 2 8 -7 10 -3 6 14 -3 13 -1 19 4 13 13 -16 36 -17 30 -1 -10 27 5 25
29 -3 43 -52 248 -144 364 -165 l35 -6 -35 14 c-19 8 -29 15 -22 15 17 1 15
31 -2 31 -8 0 -18 4 -21 10 -4 6 1 7 12 4 10 -3 3 3 -15 15 -18 11 -36 20 -40
20 -4 -1 -14 -1 -22 0 -13 1 -13 3 -1 10 18 11 24 44 8 38 -7 -3 -11 -10 -9
-16 3 -14 -57 10 -98 39 -15 11 -31 20 -36 20 -14 0 31 -42 61 -56 24 -11 25
-13 5 -8 -14 4 -38 19 -55 34 -16 15 -43 34 -58 42 -27 13 -27 15 -11 29 16
12 17 12 12 -3 -4 -9 -1 -19 6 -21 9 -4 12 1 9 13 -7 26 13 33 40 15 13 -8 27
-12 30 -9 10 10 38 -17 30 -30 -3 -6 -3 -8 2 -4 4 4 16 3 27 -3 11 -6 22 -9
24 -6 7 6 -78 67 -86 62 -4 -2 -7 2 -7 10 0 8 4 12 9 9 4 -3 8 0 8 6 0 6 11
-2 24 -17 18 -20 24 -23 22 -11 -1 10 -5 21 -9 24 -4 4 -7 12 -7 18 0 5 6 1
14 -9 8 -11 12 -23 10 -27 -6 -10 57 -49 67 -42 5 2 -8 20 -28 38 -27 24 -34
38 -29 51 8 22 24 9 31 -23z m2102 32 c-3 -3 -12 -4 -19 -1 -8 3 -5 6 6 6 11
1 17 -2 13 -5z m156 -1 c-7 -2 -19 -2 -25 0 -7 3 -2 5 12 5 14 0 19 -2 13 -5z
m-80 -10 c-7 -2 -21 -2 -30 0 -10 3 -4 5 12 5 17 0 24 -2 18 -5z m-306 -9 c-3
-3 -12 -4 -19 -1 -8 3 -5 6 6 6 11 1 17 -2 13 -5z m366 -1 c-7 -2 -19 -2 -25
0 -7 3 -2 5 12 5 14 0 19 -2 13 -5z m-1821 -23 c18 -11 29 -20 23 -20 -5 0
-23 9 -40 20 -39 26 -25 26 17 0z m1421 3 c-7 -2 -19 -2 -25 0 -7 3 -2 5 12 5
14 0 19 -2 13 -5z m85 -10 c-10 -2 -28 -2 -40 0 -13 2 -5 4 17 4 22 1 32 -1
23 -4z m187 -2 l40 -9 -35 0 c-19 -1 -53 3 -75 7 l-40 9 35 0 c19 1 53 -3 75
-7z m-232 -18 c-7 -2 -19 -2 -25 0 -7 3 -2 5 12 5 14 0 19 -2 13 -5z m-303
-13 c20 -6 21 -8 5 -8 -11 0 -31 4 -45 8 -20 6 -21 8 -5 8 11 0 31 -4 45 -8z
m-1430 -10 c8 -5 11 -10 5 -10 -5 0 -17 5 -25 10 -8 5 -10 10 -5 10 6 0 17 -5
25 -10z m-334 -42 c5 4 6 3 2 -2 -4 -6 0 -19 10 -30 15 -17 13 -17 -16 3 -29
20 -52 49 -52 66 0 3 11 -5 23 -19 13 -14 28 -22 33 -18z m309 24 c-3 -3 -11
0 -18 7 -9 10 -8 11 6 5 10 -3 15 -9 12 -12z m1528 11 c-7 -2 -19 -2 -25 0 -7
3 -2 5 12 5 14 0 19 -2 13 -5z m250 -10 c-7 -2 -19 -2 -25 0 -7 3 -2 5 12 5
14 0 19 -2 13 -5z m-1738 -21 c-3 -3 -11 0 -18 7 -9 10 -8 11 6 5 10 -3 15 -9
12 -12z m55 8 c8 -5 11 -10 5 -10 -5 0 -17 5 -25 10 -8 5 -10 10 -5 10 6 0 17
-5 25 -10z m1117 4 c-3 -3 -12 -4 -19 -1 -8 3 -5 6 6 6 11 1 17 -2 13 -5z
m316 -1 c-13 -2 -33 -2 -45 0 -13 2 -3 4 22 4 25 0 35 -2 23 -4z m-796 -9 c-3
-3 -12 -4 -19 -1 -8 3 -5 6 6 6 11 1 17 -2 13 -5z m620 0 c-3 -3 -12 -4 -19
-1 -8 3 -5 6 6 6 11 1 17 -2 13 -5z m-1614 -22 c15 -16 15 -19 2 -19 -8 0 -13
3 -10 5 3 3 0 11 -6 19 -17 20 -5 16 14 -5z m1775 11 c-10 -2 -28 -2 -40 0
-13 2 -5 4 17 4 22 1 32 -1 23 -4z m-1279 -7 c-2 -2 -17 -6 -34 -10 -22 -5
-26 -4 -15 4 14 9 59 15 49 6z m378 -12 c-3 -3 -12 -4 -19 -1 -8 3 -5 6 6 6
11 1 17 -2 13 -5z m256 -1 c-7 -2 -21 -2 -30 0 -10 3 -4 5 12 5 17 0 24 -2 18
-5z m135 0 c-10 -2 -26 -2 -35 0 -10 3 -2 5 17 5 19 0 27 -2 18 -5z m379 1
c-3 -3 -12 -4 -19 -1 -8 3 -5 6 6 6 11 1 17 -2 13 -5z m-850 -10 c-3 -3 -12
-4 -19 -1 -8 3 -5 6 6 6 11 1 17 -2 13 -5z m171 -1 c-10 -2 -28 -2 -40 0 -13
2 -5 4 17 4 22 1 32 -1 23 -4z m-1189 -33 l16 -24 -27 19 c-15 11 -28 24 -28
28 0 15 23 1 39 -23z m1074 23 c-7 -2 -19 -2 -25 0 -7 3 -2 5 12 5 14 0 19 -2
13 -5z m190 0 c-7 -2 -19 -2 -25 0 -7 3 -2 5 12 5 14 0 19 -2 13 -5z m220 -10
c-7 -2 -19 -2 -25 0 -7 3 -2 5 12 5 14 0 19 -2 13 -5z m-1148 -23 c3 -6 -1 -7
-9 -4 -18 7 -21 14 -7 14 6 0 13 -4 16 -10z m-1314 -161 c19 -7 39 -16 44 -21
6 -6 3 -6 -9 -2 -19 7 -19 7 0 -19 10 -14 23 -27 27 -27 5 0 5 -6 1 -12 -4 -7
-4 -10 1 -6 4 4 28 -10 51 -32 24 -22 47 -40 52 -40 5 0 9 -6 9 -14 0 -17 -2
-16 -132 58 -71 41 -86 46 -141 46 -33 0 -63 -3 -67 -6 -3 -3 7 -30 23 -58 64
-113 113 -320 108 -457 -3 -73 -5 -81 -15 -59 -11 24 -12 24 -14 -15 -1 -22
-5 10 -9 70 -13 192 -74 415 -132 481 -17 19 -29 36 -27 38 56 42 86 60 121
71 54 17 67 18 109 4z m3086 -24 c26 -18 38 -67 23 -94 -28 -54 -89 -63 -130
-19 -63 68 31 167 107 113z m-2294 -2 c-13 -2 -35 -2 -50 0 -16 2 -5 4 22 4
28 0 40 -2 28 -4z m2780 -25 c8 -12 7 -21 -2 -32 -19 -22 -48 -20 -61 5 -23
41 38 68 63 27z m-275 -61 c2 -12 -3 -17 -17 -17 -12 0 -21 6 -21 13 0 31 32
34 38 4z m-528 -56 c7 -15 6 -24 -6 -36 -19 -18 -33 -16 -48 9 -9 13 -7 20 8
32 26 19 33 18 46 -5z m-1642 2 c-32 -2 -86 -2 -120 0 -35 2 -9 3 57 3 66 0
94 -1 63 -3z m230 -20 c-10 -2 -26 -2 -35 0 -10 3 -2 5 17 5 19 0 27 -2 18 -5z
m2092 -24 c0 -5 -7 -9 -15 -9 -15 0 -20 12 -9 23 8 8 24 -1 24 -14z m-1062
-16 c-4 -22 -22 -20 -26 1 -2 10 3 16 13 16 10 0 15 -7 13 -17z m-578 -48
c258 -15 491 -77 745 -196 77 -36 295 -158 295 -165 0 -3 -33 14 -73 36 -161
88 -408 172 -621 210 -557 101 -1199 -15 -1651 -299 -105 -66 -271 -189 -302
-223 -10 -12 18 6 62 39 367 274 512 329 798 303 111 -10 131 -8 235 15 19 5
22 1 22 -24 0 -30 -22 -61 -43 -61 -22 0 -40 17 -32 30 5 8 2 10 -11 6 -11 -3
-111 -19 -224 -35 -225 -33 -309 -55 -414 -108 -79 -39 -195 -117 -252 -169
-22 -19 15 1 80 46 134 90 178 108 65 27 -41 -29 -126 -91 -189 -136 -148
-107 -162 -122 -69 -72 94 51 167 76 288 102 116 24 137 23 51 -1 -159 -45
-313 -130 -426 -232 -84 -78 -229 -241 -216 -246 6 -2 48 19 94 47 82 49 205
103 263 116 17 4 -6 -9 -51 -27 -144 -60 -270 -171 -380 -333 -58 -85 -38 -81
59 11 50 49 124 110 162 135 82 53 113 70 70 38 -110 -82 -294 -309 -274 -340
5 -8 9 -21 8 -29 0 -10 -4 -7 -12 7 -12 22 -13 22 -25 3 -8 -14 -9 -21 0 -26
7 -5 8 -2 3 7 -5 8 -4 11 0 6 13 -12 16 -47 4 -47 -5 0 -7 -5 -3 -12 4 -7 3
-8 -5 -4 -8 6 -9 12 -2 20 8 9 5 12 -10 11 -23 -2 -92 -92 -82 -108 4 -6 1 -7
-7 -2 -10 6 -12 4 -7 -8 4 -11 -2 -22 -17 -33 -22 -14 -48 -52 -27 -39 5 3 12
-1 15 -7 4 -7 5 -4 3 8 -3 15 1 20 14 19 28 -2 27 -7 -5 -40 -16 -16 -26 -25
-23 -19 9 15 -20 27 -29 12 -5 -7 -2 -8 7 -4 8 4 7 2 -2 -6 -24 -20 -61 -98
-55 -114 3 -8 2 -12 -4 -9 -12 7 -55 -134 -76 -250 -21 -119 -21 -363 1 -465
40 -191 129 -400 240 -568 15 -23 24 -46 19 -53 -4 -7 -3 -10 4 -5 11 7 75
-97 77 -126 1 -10 11 -28 23 -41 11 -12 21 -25 21 -30 1 -15 38 -62 95 -121
33 -34 59 -64 58 -68 -1 -4 5 -5 13 -2 8 4 15 1 15 -5 0 -9 80 -77 210 -176
76 -58 101 -81 54 -48 -88 59 -388 287 -439 332 -16 14 0 -7 35 -48 69 -79
157 -158 172 -153 5 1 7 -2 3 -7 -7 -12 29 -33 40 -23 5 4 5 2 2 -4 -8 -14 18
-38 31 -30 6 3 16 -2 23 -12 12 -15 12 -16 -1 -7 -9 6 -2 -2 15 -17 32 -29 51
-36 39 -15 -4 7 -3 9 2 4 5 -5 9 -13 9 -19 0 -15 167 -109 183 -103 7 3 10 0
7 -5 -13 -21 404 -190 467 -190 27 0 18 21 -18 41 -41 23 -78 34 -70 20 5 -8
-1 -8 -21 0 -42 16 -147 69 -158 81 -5 6 13 -1 40 -15 97 -47 126 -60 131 -55
2 3 -11 13 -31 22 -19 9 -35 19 -35 21 0 4 4 3 74 -29 28 -13 82 -20 191 -26
84 -5 174 -12 201 -15 27 -4 67 -2 89 2 36 8 24 11 -103 27 -78 9 -167 24
-197 31 -30 8 -62 12 -72 9 -13 -4 -14 -3 -5 3 12 9 -17 19 -155 58 -10 3 -4
-1 12 -9 51 -26 9 -17 -54 10 -33 15 -59 29 -57 33 4 6 -21 10 -73 12 -14 1
-19 4 -12 8 7 5 -8 16 -38 30 -27 13 -54 21 -59 17 -6 -3 -20 6 -32 21 -12 16
-24 26 -27 25 -3 -2 -17 7 -31 20 -52 46 -76 63 -67 48 10 -16 -112 77 -123
94 -4 6 -7 15 -7 21 0 5 -7 10 -16 10 -17 0 -119 111 -119 130 0 7 -7 19 -16
26 -9 7 -39 47 -67 89 -28 41 -82 116 -119 167 -110 148 -220 381 -258 547
-58 254 -26 470 119 810 2 5 -2 5 -9 1 -9 -5 -11 -4 -6 4 4 6 11 9 16 6 5 -3
14 5 21 17 6 13 30 48 52 78 40 53 41 57 41 130 l-1 75 6 -70 6 -70 31 39 c21
24 34 34 39 26 10 -17 -4 -181 -25 -288 -15 -73 -36 -129 -99 -260 -88 -184
-105 -234 -122 -366 -13 -101 -6 -194 21 -299 10 -39 16 -75 13 -81 -3 -5 -1
-6 5 -2 7 4 12 2 12 -5 0 -32 172 -326 201 -344 23 -15 10 21 -42 115 -79 141
-110 200 -105 200 2 0 48 -77 102 -170 96 -165 227 -346 243 -335 5 2 17 -5
27 -17 11 -12 13 -18 7 -14 -34 19 -5 -17 69 -89 46 -44 67 -63 48 -42 -18 20
-30 37 -25 37 4 0 0 9 -10 20 -17 19 -14 25 10 20 5 -1 1 9 -10 21 -11 12 -14
19 -7 15 14 -8 17 10 2 19 -7 4 -7 12 0 25 7 12 6 20 -1 22 -5 2 -11 11 -12
20 -4 22 -27 49 -38 42 -5 -3 -8 0 -7 8 2 7 -4 12 -12 10 -8 -2 -12 0 -8 3 4
4 -4 27 -18 51 -14 24 -23 44 -20 44 3 0 12 -13 20 -28 32 -62 136 -159 136
-127 0 3 -25 42 -55 87 -85 127 -135 277 -135 408 0 100 32 82 44 -25 8 -62
20 -119 37 -162 l9 -25 19 23 c16 20 23 22 47 14 16 -6 35 -23 44 -38 13 -24
13 -30 0 -54 -9 -16 -27 -30 -42 -33 l-27 -5 42 -62 c98 -146 239 -289 387
-395 206 -146 438 -266 613 -315 53 -15 92 -30 86 -33 -15 -10 98 -20 215 -20
521 1 921 136 1299 437 l82 65 -55 -54 c-30 -30 -57 -53 -59 -51 -2 1 -19 -13
-38 -32 -20 -19 -40 -33 -47 -32 -6 1 -10 -2 -10 -8 1 -5 -26 -30 -61 -55 -35
-25 -69 -54 -76 -65 -11 -19 -11 -19 7 -5 10 8 25 22 32 30 11 13 12 12 3 -6
-6 -12 -8 -24 -5 -27 3 -3 0 -8 -7 -13 -8 -5 -10 -3 -4 6 6 9 4 11 -4 5 -9 -5
-10 -10 -2 -18 7 -7 16 -6 28 4 16 12 17 12 6 -2 -7 -9 -11 -18 -8 -21 3 -2
-34 -23 -82 -46 -103 -48 -279 -99 -384 -111 -64 -7 -68 -9 -29 -11 38 -2 31
-5 -45 -16 l-90 -13 90 6 c160 10 183 12 242 27 32 8 69 17 83 21 14 3 5 -3
-20 -14 -75 -33 -31 -23 68 15 52 20 130 57 175 83 44 25 108 61 141 79 34 18
76 48 95 65 19 18 30 25 26 17 -11 -20 1 -10 120 92 402 343 671 782 779 1273
39 174 50 287 50 475 -1 353 -79 674 -240 991 -129 253 -282 456 -493 651 -46
43 -52 51 -21 27 82 -61 278 -260 360 -364 247 -317 405 -676 477 -1090 25
-146 25 -586 0 -740 -100 -603 -368 -1067 -793 -1370 -113 -80 -366 -211 -386
-199 -6 4 -8 3 -5 -3 7 -11 -104 -94 -216 -162 -91 -55 -280 -149 -402 -200
-117 -49 -168 -73 -140 -67 48 11 119 16 110 7 -13 -13 -346 -151 -460 -190
-197 -70 -564 -154 -810 -187 -181 -24 -553 -24 -730 0 -157 21 -394 80 -530
131 -214 80 -470 226 -642 367 -75 61 -102 93 -35 41 147 -115 485 -273 638
-298 29 -5 8 9 -87 57 -226 115 -395 237 -571 410 -355 349 -589 817 -653
1302 -16 123 -20 270 -8 263 5 -3 8 54 7 126 -1 104 0 117 6 62 6 -61 7 -51 9
70 2 77 6 163 10 190 l7 50 8 -55 c44 -319 105 -528 225 -775 114 -235 285
-469 501 -685 172 -173 307 -272 517 -378 97 -49 133 -72 135 -87 6 -43 397
-215 658 -290 264 -76 500 -113 780 -122 475 -15 910 68 1265 243 146 72 227
125 111 73 -112 -50 -412 -146 -542 -173 -297 -62 -605 -87 -832 -67 -321 28
-632 98 -912 203 -121 45 -373 159 -366 165 2 2 24 -6 48 -18 23 -12 53 -23
66 -25 19 -2 21 0 11 12 -7 8 -8 14 -3 13 5 -1 22 4 37 11 28 13 27 14 -100
80 -232 120 -426 246 -582 379 l-35 29 27 -3 c15 -2 25 1 21 6 -3 5 -10 7 -15
3 -5 -3 -8 0 -7 8 2 7 -4 12 -12 10 -8 -2 -12 0 -8 4 4 4 2 14 -5 23 -6 8 8 1
33 -16 53 -36 184 -103 202 -103 7 0 -12 15 -42 33 -30 18 -55 37 -55 44 0 6
-4 15 -9 20 -5 5 -6 3 -2 -4 4 -7 4 -13 -1 -13 -11 1 -97 80 -86 80 5 0 15 -6
23 -12 8 -7 2 1 -14 19 -16 18 -32 30 -36 28 -4 -2 -20 10 -36 28 l-29 32 31
-25 c16 -14 9 -5 -17 20 -49 46 -109 124 -170 220 -51 80 -55 90 -17 45 164
-196 406 -445 433 -445 5 0 0 9 -10 20 -10 11 -15 20 -10 20 8 0 50 -51 50
-62 0 -14 126 -99 178 -119 88 -35 195 -95 357 -200 276 -179 636 -338 880
-388 169 -35 280 -45 495 -45 386 1 691 60 1140 221 77 28 172 58 210 67 81
19 246 96 337 157 411 276 702 768 793 1339 22 141 17 161 -9 34 -42 -199
-138 -462 -232 -631 -40 -72 -54 -84 -24 -20 22 46 13 35 -42 -53 -31 -49 -40
-58 -59 -53 -15 4 -20 3 -15 -5 4 -7 3 -12 -1 -12 -5 0 -46 -47 -92 -105 -93
-117 -292 -313 -416 -411 -227 -177 -534 -321 -870 -409 -199 -52 -440 -76
-700 -68 -424 12 -826 132 -1135 339 -47 31 -90 57 -97 57 -7 0 -10 4 -8 8 5
7 -25 23 -38 20 -5 -1 -6 3 -2 9 3 5 1 11 -4 11 -6 1 -15 2 -20 3 -5 0 -13 5
-18 10 -5 5 -2 6 7 2 8 -4 4 1 -10 12 -13 11 -28 18 -32 15 -5 -2 -7 -1 -6 4
2 5 -14 24 -34 42 -21 18 -38 29 -38 25 0 -5 -29 20 -65 56 -35 35 -62 66 -60
70 6 10 -25 51 -35 45 -9 -6 -23 12 -27 34 -1 8 -12 24 -24 35 l-23 21 18 -22
c26 -32 15 -29 -15 4 -13 14 -18 23 -11 19 21 -12 13 4 -22 47 -19 23 -59 83
-90 132 -31 50 -62 90 -68 90 -6 0 -13 6 -16 14 -3 9 0 11 8 6 9 -6 9 -3 1 14
-16 29 -19 27 -15 -16 1 -21 -1 -32 -5 -24 -5 7 -12 12 -16 11 -29 -6 -196
410 -219 546 -5 28 -14 45 -29 52 -20 9 -20 11 -3 11 16 1 18 6 12 39 -4 20
-9 58 -13 85 -3 26 -11 47 -17 47 -8 0 -8 2 0 8 8 5 9 33 3 92 -9 110 -3 359
12 480 7 52 13 106 13 120 1 14 3 27 7 30 3 3 15 54 27 113 121 580 526 1099
1094 1401 96 51 114 58 173 59 59 2 69 -2 67 -24 -1 -4 38 7 86 23 208 69 434
113 657 128 117 7 180 6 375 -5z m-1284 -50 c-36 -19 -45 -19 -20 0 10 8 26
14 34 15 8 0 2 -7 -14 -15z m-139 -54 c-29 -14 -54 -25 -56 -24 -10 7 34 43
46 39 7 -3 12 -2 12 2 -3 16 2 19 26 15 22 -5 19 -8 -28 -32z m340 -27 c-3 -3
-12 -4 -19 -1 -8 3 -5 6 6 6 11 1 17 -2 13 -5z m-833 -139 c-10 -8 -23 -14
-29 -14 -5 -1 1 8 15 19 14 10 27 17 29 14 3 -2 -4 -11 -15 -19z m1784 18
c-32 -2 -86 -2 -120 0 -35 2 -9 3 57 3 66 0 94 -1 63 -3z m-228 -17 c-25 -7
-56 -16 -70 -20 -39 -13 -18 2 26 18 21 8 50 15 64 15 16 0 9 -5 -20 -13z
m333 7 c-7 -2 -19 -2 -25 0 -7 3 -2 5 12 5 14 0 19 -2 13 -5z m-3342 -214
c-39 -251 -15 -600 61 -892 31 -119 44 -222 28 -212 -5 3 -18 -6 -29 -21 l-20
-26 21 -56 c36 -98 112 -253 168 -342 29 -47 46 -79 37 -72 -10 9 -17 10 -22
2 -3 -6 -11 -8 -16 -4 -5 3 -23 -1 -39 -10 -29 -14 -31 -14 -54 17 -119 159
-206 361 -258 599 -30 141 -33 499 -4 653 26 144 119 445 133 432 2 -3 -1 -33
-6 -68z m1109 31 c0 -37 28 -77 80 -114 27 -20 50 -43 50 -53 0 -28 -31 -53
-67 -53 -103 0 -149 96 -98 204 19 40 35 47 35 16z m1311 -86 c25 -13 30 -20
27 -47 -2 -22 -11 -36 -29 -46 -24 -13 -29 -13 -58 8 -35 25 -40 55 -14 83 20
22 35 23 74 2z m-271 -4 c0 -5 -4 -10 -10 -10 -5 0 -10 5 -10 10 0 6 5 10 10
10 6 0 10 -4 10 -10z m376 1 c8 7 14 7 14 1 0 -12 -26 -23 -34 -15 -3 4 -6 11
-5 17 0 6 3 5 6 -2 4 -10 8 -10 19 -1z m-2369 -153 c-3 -8 -6 -5 -6 6 -1 11 2
17 5 13 3 -3 4 -12 1 -19z m-10 -40 c-3 -8 -6 -5 -6 6 -1 11 2 17 5 13 3 -3 4
-12 1 -19z m2481 -50 c51 -16 90 -33 87 -39 -4 -5 -1 -9 6 -9 7 0 10 -2 7 -5
-3 -3 -31 6 -63 20 -32 14 -94 37 -139 51 -59 18 -69 23 -36 18 25 -3 87 -19
138 -36z m-2501 -50 c-3 -8 -6 -5 -6 6 -1 11 2 17 5 13 3 -3 4 -12 1 -19z m0
-78 c4 -12 7 -11 13 5 4 12 10 -28 14 -100 15 -263 47 -460 121 -750 84 -328
134 -456 232 -592 56 -79 58 -92 6 -41 -18 18 -33 26 -33 19 0 -7 -5 -9 -11
-5 -8 5 -8 9 1 14 9 5 -2 29 -39 83 -60 89 -174 315 -224 442 -97 251 -117
354 -117 618 0 152 19 391 28 342 2 -11 6 -27 9 -35z m1780 -76 c-3 -3 -12 -4
-19 -1 -8 3 -5 6 6 6 11 1 17 -2 13 -5z m1727 -205 c-7 -13 -31 -11 -40 2 -9
16 18 30 33 17 7 -6 10 -14 7 -19z m-368 -70 c182 -281 224 -610 114 -887 -16
-39 -46 -98 -66 -129 -41 -65 -153 -185 -165 -178 -4 3 -18 1 -32 -4 -16 -6
-28 -6 -35 1 -6 6 -12 6 -17 -3 -6 -8 -4 -10 6 -5 8 4 3 -1 -11 -12 -14 -12
-26 -19 -28 -17 -3 2 -34 -11 -71 -30 -90 -45 -142 -61 -242 -75 -95 -13 -155
-9 -284 21 -112 27 -146 39 -139 50 3 5 -1 6 -9 3 -8 -3 -38 16 -71 46 -66 61
-109 143 -126 241 -45 257 183 484 445 445 l47 -8 -4 -53 c-4 -46 -1 -55 15
-62 14 -6 4 -9 -34 -9 -97 0 -191 -61 -241 -157 -30 -57 -32 -183 -4 -241 28
-56 81 -105 144 -134 46 -21 65 -24 126 -20 82 6 136 30 202 90 81 74 131 190
161 370 l16 98 51 29 c60 34 135 111 165 170 12 23 28 67 35 99 9 36 15 47 15
30 1 -26 35 -57 48 -44 4 3 13 -3 20 -14 8 -11 18 -18 23 -15 5 3 11 -3 13
-12 3 -10 3 3 1 28 -6 71 -41 194 -82 289 -20 47 -34 86 -32 87 3 1 -4 9 -15
17 -20 15 -20 15 1 10 12 -3 25 0 29 7 6 8 4 10 -5 4 -9 -5 -11 -4 -6 4 4 6 2
18 -4 26 -7 8 -10 15 -6 15 4 0 27 -32 52 -71z m532 -41 c-7 -19 -38 -22 -38
-4 0 10 9 16 21 16 12 0 19 -5 17 -12z m-1784 -9 c31 -14 40 -47 20 -76 -26
-41 -94 -23 -94 25 0 31 9 47 30 55 8 3 16 6 17 6 1 1 13 -4 27 -10z m2425
-240 c14 -41 14 -41 -8 -27 -16 10 -35 5 -114 -31 -52 -24 -109 -51 -126 -62
-38 -23 -141 -161 -141 -188 0 -30 -17 -26 -24 5 -4 14 -24 66 -45 115 -37 84
-40 109 -10 73 11 -13 27 -15 84 -12 58 4 92 15 200 62 72 32 137 66 145 77
21 25 26 24 39 -12z m-2279 -15 c0 -17 -26 -19 -36 -3 -7 12 15 31 28 23 4 -3
8 -12 8 -20z m320 6 c0 -5 -4 -10 -10 -10 -5 0 -10 5 -10 10 0 6 5 10 10 10 6
0 10 -4 10 -10z m-1103 -34 c-3 -7 -1 -19 4 -25 6 -8 5 -8 -3 -1 -8 6 -17 5
-27 -3 -9 -7 -7 -1 4 15 22 30 30 35 22 14z m281 -55 c-2 -28 -9 -38 -29 -45
-21 -7 -30 -5 -48 13 -30 30 -17 73 25 82 40 8 56 -7 52 -50z m-244 -2 c-3 -5
-10 -7 -15 -3 -5 3 -7 10 -3 15 3 5 10 7 15 3 5 -3 7 -10 3 -15z m6 -28 c0 -5
-11 -18 -25 -29 -13 -11 -21 -22 -18 -26 3 -3 -1 -6 -10 -6 -10 0 -14 5 -11
15 4 8 12 15 20 15 8 0 14 9 14 20 0 11 7 20 15 20 8 0 15 -4 15 -9z m-31
-104 c-19 -16 -28 -26 -20 -22 9 5 8 -1 -4 -19 -9 -14 -22 -23 -28 -19 -6 4
-8 0 -4 -10 4 -11 2 -14 -8 -11 -12 5 -12 10 2 30 14 22 14 24 -1 18 -9 -4
-16 -1 -16 6 0 7 -7 10 -16 6 -8 -3 -12 -2 -9 4 3 6 13 10 21 10 8 0 14 9 14
20 0 18 5 20 45 16 37 -4 45 -2 46 12 0 13 2 14 6 3 4 -9 -8 -27 -28 -44z
m191 29 c0 -3 -4 -8 -10 -11 -5 -3 -10 -1 -10 4 0 6 5 11 10 11 6 0 10 -2 10
-4z m-276 -176 c-6 -6 -10 -3 -10 10 0 13 4 16 10 10 7 -7 7 -13 0 -20z m1399
-40 c52 -16 71 -48 64 -106 -7 -70 -41 -99 -114 -99 -57 0 -57 0 -60 33 -4 28
2 39 41 77 25 24 46 51 46 58 0 8 -10 27 -22 43 -12 16 -16 24 -8 18 8 -6 32
-17 53 -24z m-1427 -17 c-8 -15 -15 -25 -16 -21 0 12 23 58 27 54 3 -2 -2 -17
-11 -33z m-25 -60 c-12 -20 -14 -14 -5 12 4 9 9 14 11 11 3 -2 0 -13 -6 -23z
m-27 -87 c-3 -15 -8 -25 -11 -23 -2 3 -1 17 3 31 3 15 8 25 11 23 2 -3 1 -17
-3 -31z m2886 10 c0 -19 -25 -27 -39 -13 -18 18 -13 27 14 27 15 0 25 -6 25
-14z m-3915 -36 c10 -11 16 -20 13 -20 -3 0 -13 9 -23 20 -10 11 -16 20 -13
20 3 0 13 -9 23 -20z m1012 -32 c-3 -8 -6 -5 -6 6 -1 11 2 17 5 13 3 -3 4 -12
1 -19z m400 -233 c-3 -14 -5 -12 -6 8 0 16 -6 26 -13 25 -7 -2 -12 3 -10 10 3
17 -13 15 -28 -3 -7 -8 -19 -15 -26 -15 -10 0 -11 6 -3 26 8 24 8 25 -6 14
-20 -17 -19 -6 1 15 9 9 18 35 19 58 l3 42 -13 -30 c-16 -35 -19 -30 -6 11 5
16 12 43 16 59 6 26 12 15 41 -85 19 -63 33 -124 31 -135z m-410 183 c-3 -7
-5 -2 -5 12 0 14 2 19 5 13 2 -7 2 -19 0 -25z m-10 -55 c-3 -10 -5 -4 -5 12 0
17 2 24 5 18 2 -7 2 -21 0 -30z m303 -66 c-12 -26 -23 -47 -26 -47 -2 0 3 17
12 38 9 20 18 43 21 50 3 7 7 11 9 9 2 -2 -5 -25 -16 -50z m2606 32 c3 -6 2
-15 -4 -21 -12 -12 -52 -1 -52 13 0 6 4 8 9 4 5 -3 12 -1 16 5 8 13 22 13 31
-1z m-2919 -46 c-3 -10 -5 -2 -5 17 0 19 2 27 5 18 2 -10 2 -26 0 -35z m488
-110 c15 -50 19 -82 6 -49 -8 20 -31 -307 -31 -429 0 -38 9 -106 19 -150 11
-44 18 -82 16 -83 -2 -2 -9 16 -15 39 -16 65 -17 66 -39 72 -14 3 -21 0 -21
-10 0 -8 -5 -11 -11 -7 -6 3 -9 15 -6 25 3 11 1 17 -3 14 -5 -3 -14 4 -21 17
-17 32 -5 183 30 375 17 89 31 187 32 217 2 51 3 54 16 36 8 -11 20 -41 28
-67z m-58 15 c-3 -8 -6 -5 -6 6 -1 11 2 17 5 13 3 -3 4 -12 1 -19z m-973 -283
c48 -23 64 -27 114 -22 31 3 71 9 87 13 l30 7 -26 -34 c-34 -44 -109 -90 -159
-96 -61 -8 -124 20 -189 87 -56 57 -194 229 -174 217 6 -4 16 0 23 8 7 8 16
12 21 9 21 -13 30 9 12 29 -10 12 32 -26 93 -84 72 -69 131 -116 168 -134z
m3519 220 c1 -5 -6 -11 -15 -13 -11 -2 -18 3 -18 13 0 17 30 18 33 0z m-3858
-15 c10 -11 16 -20 13 -20 -3 0 -13 9 -23 20 -10 11 -16 20 -13 20 3 0 13 -9
23 -20z m1463 -32 c14 7 25 -25 18 -52 -6 -25 -68 -67 -81 -54 -10 10 7 117
19 115 6 -1 10 5 8 13 -1 10 3 8 13 -5 9 -11 19 -19 23 -17z m3093 -25 c-12
-20 -14 -14 -5 12 4 9 9 14 11 11 3 -2 0 -13 -6 -23z m40 -10 c-12 -20 -14
-14 -5 12 4 9 9 14 11 11 3 -2 0 -13 -6 -23z m-62 -62 c-7 -23 -14 -39 -16
-37 -3 2 1 23 8 45 7 23 14 39 16 37 3 -2 -1 -23 -8 -45z m175 -16 c-7 -16
-18 -29 -24 -27 -6 1 -10 -3 -9 -10 3 -26 -2 -37 -46 -97 -25 -34 -50 -59 -55
-56 -5 3 -7 0 -4 -8 7 -18 -266 -292 -416 -418 -138 -115 -164 -133 -241 -170
-32 -16 -59 -31 -59 -34 0 -8 82 27 124 53 25 16 42 20 48 14 7 -7 4 -14 -8
-20 -27 -14 -302 -122 -311 -122 -5 0 20 16 55 35 35 20 69 32 75 29 7 -4 9
-4 5 1 -4 4 41 39 100 78 179 119 427 389 512 557 24 48 50 83 50 68 0 -27
-139 -242 -204 -316 -16 -18 -27 -35 -24 -37 5 -6 223 231 290 315 50 63 98
138 124 193 15 31 19 35 25 20 3 -10 0 -31 -7 -48z m-161 -33 c-20 -45 -38
-80 -40 -78 -2 2 13 40 33 85 20 45 39 80 41 78 1 -2 -13 -40 -34 -85z m88 40
c-19 -38 -139 -202 -148 -202 -6 0 4 16 72 110 34 47 68 95 74 108 6 12 14 22
17 22 2 0 -4 -17 -15 -38z m-1165 -38 c-7 -18 59 -282 96 -384 20 -55 27 -65
46 -63 31 4 27 -9 -11 -32 -47 -29 -48 -29 -36 -1 11 23 5 34 -72 143 -45 65
-101 144 -123 176 -33 46 -46 57 -63 54 -39 -7 -25 7 57 56 43 26 82 52 85 57
10 17 28 11 21 -6z m207 -11 c9 -9 -13 -34 -24 -27 -14 8 -11 34 4 34 8 0 17
-3 20 -7z m827 -30 c-11 -17 -11 -17 -6 0 3 10 6 24 7 30 0 9 2 9 5 0 3 -7 0
-20 -6 -30z m-2973 -53 c15 -30 1 -58 -33 -66 -46 -12 -62 52 -22 80 28 20 39
16 55 -14z m1736 -196 c11 -11 -5 -34 -23 -34 -22 0 -34 15 -25 30 7 11 38 14
48 4z m-2973 -54 c6 -11 8 -20 6 -20 -3 0 -10 9 -16 20 -6 11 -8 20 -6 20 3 0
10 -9 16 -20z m1800 -90 c0 -25 -17 -35 -36 -19 -13 10 -12 14 2 30 19 21 34
16 34 -11z m3199 -21 c-16 -10 -23 -4 -14 10 3 6 11 8 17 5 6 -4 5 -9 -3 -15z
m-3889 -64 c0 -5 -5 -3 -10 5 -5 8 -10 20 -10 25 0 6 5 3 10 -5 5 -8 10 -19
10 -25z m1455 25 c-3 -5 -10 -10 -16 -10 -5 0 -9 5 -9 10 0 6 7 10 16 10 8 0
12 -4 9 -10z m-2265 -26 c22 -15 40 -29 40 -31 0 -3 -11 2 -24 10 -23 16 -23
15 -12 -8 6 -13 13 -20 16 -17 9 12 30 13 52 1 25 -13 7 -30 -23 -22 -15 4
-18 1 -13 -11 7 -19 -21 -23 -32 -4 -5 7 -2 9 7 4 8 -4 4 1 -7 11 -31 26 -47
60 -31 66 7 3 5 6 -5 6 -10 1 -18 6 -18 11 0 15 6 13 50 -16z m294 10 c3 -8 2
-12 -4 -9 -6 3 -10 10 -10 16 0 14 7 11 14 -7z m3497 -32 c-64 -81 -201 -189
-223 -176 -7 4 -8 3 -4 -4 13 -21 -270 -147 -307 -137 -15 4 -18 3 -9 -3 15
-10 -98 -50 -165 -58 -34 -4 -32 -3 12 10 94 28 110 34 95 35 -8 0 -37 -6 -64
-14 -79 -24 -77 -16 4 14 137 52 316 128 373 159 120 66 227 134 269 172 23
21 45 39 46 40 2 0 -10 -17 -27 -38z m-71 25 c0 -2 -10 -12 -22 -23 l-23 -19
19 23 c18 21 26 27 26 19z m580 -17 c-6 -11 -13 -20 -16 -20 -2 0 0 9 6 20 6
11 13 20 16 20 2 0 0 -9 -6 -20z m-3476 -16 c3 -8 2 -12 -4 -9 -6 3 -10 10
-10 16 0 14 7 11 14 -7z m2846 -8 c0 -6 -131 -110 -178 -141 -26 -17 -46 -25
-52 -19 -6 6 11 20 43 37 29 15 81 49 117 76 69 52 70 53 70 47z m-3365 -42
c9 -15 12 -23 6 -20 -11 7 -35 46 -28 46 3 0 12 -12 22 -26z m-233 -7 c-13 -6
-21 -16 -18 -23 8 -21 -10 -26 -25 -7 -8 10 -9 14 -2 10 7 -4 14 0 17 11 3 10
16 18 28 19 l23 1 -23 -11z m99 -15 c-7 -2 -18 1 -23 6 -8 8 -4 9 13 5 13 -4
18 -8 10 -11z m1383 -179 c37 -75 107 -161 201 -252 93 -89 93 -91 -1 -25 -85
60 -185 171 -221 246 -30 61 -38 101 -34 163 2 24 5 19 17 -27 7 -32 24 -79
38 -105z m-795 -78 c133 -123 144 -135 66 -71 -74 60 -215 205 -258 265 -11
14 14 -10 54 -54 40 -44 102 -107 138 -140z m-653 170 c-6 17 -4 17 21 -5 46
-41 49 -44 21 -27 -32 20 -42 22 -31 5 8 -13 13 -38 8 -38 -1 0 -15 19 -30 43
-26 38 -26 40 -5 22 23 -20 23 -20 16 0z m2154 6 c0 -13 -26 -32 -33 -24 -14
13 -6 33 13 33 11 0 20 -4 20 -9z m-360 -27 c0 -19 -28 -30 -42 -16 -8 8 -8
15 1 26 14 17 41 10 41 -10z m184 -45 c-3 -5 -10 -7 -15 -3 -5 3 -7 10 -3 15
3 5 10 7 15 3 5 -3 7 -10 3 -15z m-525 -163 c53 -54 123 -118 156 -142 32 -24
53 -44 46 -44 -7 0 -9 -5 -5 -12 4 -7 3 -8 -5 -4 -6 4 -9 11 -6 16 9 14 -15
23 -29 11 -18 -15 -29 -1 -13 17 10 13 9 15 -6 9 -12 -5 -16 -3 -11 5 4 7 3 8
-4 4 -26 -16 -204 134 -242 204 -8 14 -15 40 -15 59 l-2 34 21 -29 c11 -16 63
-73 115 -128z m239 7 c60 -76 141 -142 257 -212 39 -23 59 -40 45 -37 -51 11
-75 11 -73 0 1 -7 -7 -14 -17 -17 -11 -3 -18 -2 -15 3 3 4 -2 11 -11 14 -9 4
-13 2 -8 -5 10 -16 -31 7 -102 56 -71 51 -131 114 -150 161 -14 34 -18 121 -8
162 6 20 10 16 29 -32 12 -30 36 -72 53 -93z m1922 124 c0 -2 -10 -12 -22 -23
l-23 -19 19 23 c18 21 26 27 26 19z m-2786 -31 c14 2 16 0 7 -9 -8 -8 -6 -16
6 -29 9 -10 14 -18 12 -18 -3 0 -21 17 -40 37 -18 20 -27 32 -19 26 8 -6 23
-9 34 -7z m3136 -9 c0 -1 -42 -43 -92 -92 l-93 -90 90 93 c83 85 95 97 95 89z
m-1037 -84 c-7 -2 -21 -2 -30 0 -10 3 -4 5 12 5 17 0 24 -2 18 -5z m-603 -26
c0 -19 -10 -27 -25 -20 -17 6 -8 33 11 33 8 0 14 -6 14 -13z m-120 -5 c0 -5
-7 -9 -15 -9 -8 0 -15 4 -15 9 0 4 7 8 15 8 8 0 15 -4 15 -8z m-870 -27 c13
-14 21 -25 18 -25 -2 0 -15 11 -28 25 -13 14 -21 25 -18 25 2 0 15 -11 28 -25z
m1870 3 c0 -7 -11 -18 -25 -25 -31 -14 -32 -7 -2 18 27 22 27 22 27 7z m-735
-87 c3 -5 2 -12 -3 -15 -5 -3 -9 1 -9 9 0 17 3 19 12 6z m1705 -1 c0 -5 -4
-10 -10 -10 -5 0 -10 5 -10 10 0 6 5 10 10 10 6 0 10 -4 10 -10z m-2479 -67
c13 -16 12 -17 -3 -4 -10 7 -18 15 -18 17 0 8 8 3 21 -13z m799 -18 c27 -33
-25 -84 -74 -71 -64 16 -46 86 23 86 22 0 44 -6 51 -15z m781 -38 c-10 -9 -11
-8 -5 6 3 10 9 15 12 12 3 -3 0 -11 -7 -18z m-2261 -13 c0 -2 -9 0 -20 6 -11
6 -20 13 -20 16 0 2 9 0 20 -6 11 -6 20 -13 20 -16z m135 -2 c-3 -3 -11 0 -18
7 -9 10 -8 11 6 5 10 -3 15 -9 12 -12z m1152 2 c-3 -3 -12 -4 -19 -1 -8 3 -5
6 6 6 11 1 17 -2 13 -5z m56 -11 c-7 -2 -21 -2 -30 0 -10 3 -4 5 12 5 17 0 24
-2 18 -5z m-898 -93 c13 -6 15 -9 5 -9 -8 0 -22 4 -30 9 -18 12 -2 12 25 0z
m-875 -15 c0 -2 -6 -5 -13 -8 -8 -3 -14 1 -14 8 0 7 6 11 14 8 7 -3 13 -6 13
-8z m755 -3 c-3 -3 -11 0 -18 7 -9 10 -8 11 6 5 10 -3 15 -9 12 -12z m172 2
c-3 -3 -12 -4 -19 -1 -8 3 -5 6 6 6 11 1 17 -2 13 -5z m1861 -266 c20 -20 14
-56 -13 -74 -23 -15 -27 -15 -50 0 -36 23 -32 50 10 74 26 15 38 15 53 0z
m-582 -327 c0 -11 -4 -17 -8 -15 -4 3 -8 -7 -8 -22 0 -15 -8 -36 -17 -47 -10
-11 -13 -17 -6 -14 6 4 14 4 17 -1 3 -5 -48 -39 -112 -76 -255 -146 -475 -332
-606 -511 -26 -36 -28 -7 -6 62 32 95 59 147 127 238 73 99 132 159 248 254
50 41 97 81 107 88 12 11 18 12 24 2 5 -8 3 -10 -7 -5 -8 4 -5 0 5 -8 11 -9
16 -16 12 -16 -5 0 2 -8 15 -19 23 -18 23 -18 118 45 52 35 95 64 96 64 0 0 1
-9 1 -19z m13 -91 c-6 -5 -18 -6 -26 -3 -19 8 -16 11 13 11 17 0 22 -3 13 -8z
m-939 -126 l-25 -14 35 1 c77 2 92 -1 97 -21 4 -14 14 -20 34 -20 16 0 29 -4
29 -9 0 -5 8 -12 18 -14 13 -4 12 -5 -5 -6 -41 -2 -346 -83 -419 -111 -115
-44 -204 -98 -271 -166 -35 -34 -63 -59 -63 -54 0 21 89 136 142 184 76 67
216 152 340 205 95 41 133 52 88 25z"/>
<path d="M5654 8531 c-21 -15 -50 -41 -64 -57 -20 -22 23 10 105 78 23 20 -6
5 -41 -21z"/>
<path d="M5649 8478 c-66 -53 -84 -72 -132 -142 l-29 -41 28 35 c38 47 131
140 174 172 19 15 33 27 29 28 -3 0 -34 -23 -70 -52z"/>
<path d="M5850 8475 c-7 -9 -10 -18 -7 -21 3 -3 10 4 17 15 13 25 8 27 -10 6z"/>
<path d="M4991 8364 c-53 -47 -133 -148 -190 -239 -46 -73 -74 -173 -69 -246
2 -32 1 -59 -4 -59 -4 0 -8 -5 -8 -11 0 -5 4 -8 9 -4 5 3 12 2 15 -3 10 -16
72 -1 86 21 13 22 12 22 -8 4 -29 -27 -63 -18 -75 18 -11 31 5 154 25 204 l11
26 7 -25 6 -25 6 27 c3 15 1 25 -3 22 -11 -7 -11 7 0 25 15 23 22 -19 11 -59
-6 -19 -10 -48 -10 -65 0 -24 -2 -27 -11 -15 -8 11 -9 7 -3 -15 4 -16 8 -44 8
-61 1 -19 5 -30 12 -27 7 2 13 44 16 106 4 91 8 110 37 167 18 36 43 78 54 94
12 16 16 26 9 22 -6 -4 -28 -35 -49 -69 -21 -34 -44 -63 -51 -64 -18 -4 -15 2
24 60 63 90 105 141 158 189 28 26 48 48 45 48 -4 0 -30 -21 -58 -46z"/>
<path d="M5702 8270 c0 -14 2 -19 5 -12 2 6 2 18 0 25 -3 6 -5 1 -5 -13z"/>
<path d="M5561 8257 c-13 -21 -12 -21 5 -5 10 10 16 20 13 22 -3 3 -11 -5 -18
-17z"/>
<path d="M4996 8149 c-8 -42 0 -50 9 -9 4 17 5 34 2 36 -2 3 -7 -10 -11 -27z"/>
<path d="M5260 8103 c-13 -37 -26 -72 -30 -78 -4 -5 -11 -26 -15 -45 -7 -34
-7 -35 12 -17 11 9 22 15 24 13 2 -3 3 12 1 32 -2 20 6 64 17 96 12 33 19 61
17 63 -2 2 -14 -26 -26 -64z m-28 -125 c-8 -8 -9 -4 -5 13 4 13 8 18 11 10 2
-7 -1 -18 -6 -23z"/>
<path d="M5095 8119 c-4 -6 -5 -12 -2 -15 2 -3 7 2 10 11 7 17 1 20 -8 4z"/>
<path d="M4759 8103 c-13 -16 -12 -17 4 -4 9 7 17 15 17 17 0 8 -8 3 -21 -13z"/>
<path d="M5076 8075 c-9 -26 -7 -32 5 -12 6 10 9 21 6 23 -2 3 -7 -2 -11 -11z"/>
<path d="M5263 8045 c-3 -9 -3 -18 -1 -21 3 -3 8 4 11 16 6 23 -1 27 -10 5z"/>
<path d="M4781 7994 c0 -11 3 -14 6 -6 3 7 2 16 -1 19 -3 4 -6 -2 -5 -13z"/>
<path d="M4692 7950 c0 -14 2 -19 5 -12 2 6 2 18 0 25 -3 6 -5 1 -5 -13z"/>
<path d="M4651 7879 c-7 -22 -11 -43 -8 -45 2 -2 9 14 16 37 7 22 11 43 8 45
-2 2 -9 -14 -16 -37z"/>
<path d="M5061 7894 c0 -11 3 -14 6 -6 3 7 2 16 -1 19 -3 4 -6 -2 -5 -13z"/>
<path d="M4596 7874 c-4 -14 -5 -28 -3 -31 3 -2 8 8 11 23 4 14 5 28 3 31 -3
2 -8 -8 -11 -23z"/>
<path d="M4621 7864 c0 -11 3 -14 6 -6 3 7 2 16 -1 19 -3 4 -6 -2 -5 -13z"/>
<path d="M4541 7854 c0 -11 3 -14 6 -6 3 7 2 16 -1 19 -3 4 -6 -2 -5 -13z"/>
<path d="M4611 7824 c0 -11 3 -14 6 -6 3 7 2 16 -1 19 -3 4 -6 -2 -5 -13z"/>
<path d="M4532 7810 c0 -14 2 -19 5 -12 2 6 2 18 0 25 -3 6 -5 1 -5 -13z"/>
<path d="M4885 7820 c3 -5 8 -10 11 -10 2 0 4 5 4 10 0 6 -5 10 -11 10 -5 0
-7 -4 -4 -10z"/>
<path d="M4592 7780 c0 -14 2 -19 5 -12 2 6 2 18 0 25 -3 6 -5 1 -5 -13z"/>
<path d="M4845 7760 c-16 -11 -25 -20 -20 -20 10 0 64 39 55 40 -3 0 -18 -9
-35 -20z"/>
<path d="M4584 7665 c0 -49 1 -71 3 -48 2 23 2 64 0 90 -2 26 -3 8 -3 -42z"/>
<path d="M4432 7685 c0 -16 2 -22 5 -12 2 9 2 23 0 30 -3 6 -5 -1 -5 -18z"/>
<path d="M6430 8115 c13 -14 26 -25 28 -25 3 0 -5 11 -18 25 -13 14 -26 25
-28 25 -3 0 5 -11 18 -25z"/>
<path d="M5540 7977 c0 -2 15 -16 33 -33 l32 -29 -29 33 c-28 30 -36 37 -36
29z"/>
<path d="M5400 7920 c0 -5 5 -10 11 -10 5 0 7 5 4 10 -3 6 -8 10 -11 10 -2 0
-4 -4 -4 -10z"/>
<path d="M5265 7863 c2 -10 4 -22 4 -27 1 -5 7 -3 15 3 11 10 16 9 23 -2 4 -8
25 -25 46 -37 33 -20 42 -21 62 -10 26 14 57 4 34 -11 -12 -7 -11 -9 0 -9 11
0 10 -4 -5 -16 -10 -8 -14 -13 -8 -10 5 3 41 -6 79 -20 37 -14 72 -23 77 -22
5 2 -23 14 -62 27 -52 18 -67 27 -56 33 10 6 32 1 62 -12 72 -33 60 -18 -16
19 -38 19 -68 38 -67 43 1 4 -14 18 -33 29 -31 19 -32 19 -11 2 21 -18 22 -21
6 -26 -9 -4 -22 -4 -27 -1 -6 4 -20 7 -32 8 -11 1 -21 8 -21 16 0 8 -8 14 -16
12 -9 -1 -22 5 -29 13 -17 20 -29 19 -25 -2z m147 -57 c7 4 8 3 4 -4 -10 -16
-18 -15 -42 4 -18 14 -18 15 4 4 12 -6 28 -8 34 -4z"/>
<path d="M5126 7778 c3 -4 1 -8 -5 -8 -11 0 -9 -26 4 -37 4 -4 5 -2 1 5 -8 14
10 17 19 2 3 -5 15 -15 27 -21 15 -8 19 -8 14 0 -10 15 -7 15 65 -18 64 -28
149 -51 119 -31 -8 5 -23 10 -32 10 -25 0 -88 32 -82 42 3 4 -3 5 -12 1 -12
-4 -15 -3 -10 5 5 8 1 10 -10 5 -12 -4 -15 -3 -10 5 5 8 1 10 -10 5 -11 -4
-15 -2 -11 4 4 6 0 17 -9 24 -18 15 -66 21 -58 7z m55 -15 c13 -16 12 -17 -3
-4 -10 7 -18 15 -18 17 0 8 8 3 21 -13z m-16 -13 c10 -11 14 -20 8 -20 -5 0
-18 9 -28 20 -10 11 -14 20 -8 20 5 0 18 -9 28 -20z"/>
<path d="M5825 7760 c3 -5 18 -10 32 -10 32 0 28 5 -10 14 -19 4 -26 3 -22 -4z"/>
<path d="M6045 7740 c19 -8 73 -14 64 -6 -2 2 -22 6 -44 9 -28 5 -34 4 -20 -3z"/>
<path d="M5608 7723 c7 -3 16 -2 19 1 4 3 -2 6 -13 5 -11 0 -14 -3 -6 -6z"/>
<path d="M5928 7713 c7 -3 16 -2 19 1 4 3 -2 6 -13 5 -11 0 -14 -3 -6 -6z"/>
<path d="M5688 7703 c6 -2 18 -2 25 0 6 3 1 5 -13 5 -14 0 -19 -2 -12 -5z"/>
<path d="M6178 7703 c23 -2 59 -2 80 0 20 2 1 4 -43 4 -44 0 -61 -2 -37 -4z"/>
<path d="M5748 7693 c7 -3 16 -2 19 1 4 3 -2 6 -13 5 -11 0 -14 -3 -6 -6z"/>
<path d="M6373 7693 c9 -2 23 -2 30 0 6 3 -1 5 -18 5 -16 0 -22 -2 -12 -5z"/>
<path d="M4631 7504 c-45 -35 -61 -64 -35 -64 16 0 36 34 26 45 -4 4 2 3 14
-3 16 -9 21 -8 21 4 0 7 -5 14 -10 14 -5 0 1 9 14 20 42 34 16 21 -30 -16z"/>
<path d="M5090 7520 c0 -8 60 -23 67 -17 1 2 -13 8 -32 14 -19 6 -35 8 -35 3z"/>
<path d="M5578 7523 c7 -3 16 -2 19 1 4 3 -2 6 -13 5 -11 0 -14 -3 -6 -6z"/>
<path d="M4848 7503 c6 -2 18 -2 25 0 6 3 1 5 -13 5 -14 0 -19 -2 -12 -5z"/>
<path d="M4918 7493 c6 -2 18 -2 25 0 6 3 1 5 -13 5 -14 0 -19 -2 -12 -5z"/>
<path d="M5948 7443 c7 -3 16 -2 19 1 4 3 -2 6 -13 5 -11 0 -14 -3 -6 -6z"/>
<path d="M4738 7353 c7 -3 16 -2 19 1 4 3 -2 6 -13 5 -11 0 -14 -3 -6 -6z"/>
<path d="M4808 7343 c7 -3 16 -2 19 1 4 3 -2 6 -13 5 -11 0 -14 -3 -6 -6z"/>
<path d="M4663 7323 c9 -2 25 -2 35 0 9 3 1 5 -18 5 -19 0 -27 -2 -17 -5z"/>
<path d="M8022 4920 c0 -14 2 -19 5 -12 2 6 2 18 0 25 -3 6 -5 1 -5 -13z"/>
<path d="M7656 4023 c-6 -14 -5 -15 5 -6 7 7 10 15 7 18 -3 3 -9 -2 -12 -12z"/>
<path d="M4066 3992 c-4 -6 10 -28 30 -49 31 -33 33 -34 17 -8 -11 17 -25 38
-30 49 -7 12 -13 15 -17 8z"/>
<path d="M3300 3946 c0 -2 8 -10 18 -17 15 -13 16 -12 3 4 -13 16 -21 21 -21
13z"/>
<path d="M3910 3856 c0 -2 8 -10 18 -17 15 -13 16 -12 3 4 -13 16 -21 21 -21
13z"/>
<path d="M3955 3800 c10 -11 20 -20 23 -20 3 0 -3 9 -13 20 -10 11 -20 20 -23
20 -3 0 3 -9 13 -20z"/>
<path d="M3463 3803 c4 -6 2 -13 -4 -15 -7 -2 -6 -8 3 -16 12 -9 14 -8 13 8
-1 11 -5 23 -10 27 -4 5 -5 3 -2 -4z"/>
<path d="M3590 3710 c0 -5 5 -10 11 -10 5 0 7 5 4 10 -3 6 -8 10 -11 10 -2 0
-4 -4 -4 -10z"/>
<path d="M4045 3620 c33 -33 62 -60 64 -60 3 0 -21 27 -54 60 -33 33 -62 60
-64 60 -3 0 21 -27 54 -60z"/>
<path d="M4395 3570 c10 -11 20 -20 23 -20 3 0 -3 9 -13 20 -10 11 -20 20 -23
20 -3 0 3 -9 13 -20z"/>
<path d="M4580 3426 c0 -2 8 -10 18 -17 15 -13 16 -12 3 4 -13 16 -21 21 -21
13z"/>
<path d="M6695 3419 c-4 -6 -5 -12 -2 -15 2 -3 7 2 10 11 7 17 1 20 -8 4z"/>
<path d="M4830 3315 c14 -8 30 -14 35 -14 6 0 -1 6 -15 14 -14 8 -29 14 -35
14 -5 0 1 -6 15 -14z"/>
<path d="M5368 3243 c7 -3 16 -2 19 1 4 3 -2 6 -13 5 -11 0 -14 -3 -6 -6z"/>
<path d="M5413 3233 c9 -2 23 -2 30 0 6 3 -1 5 -18 5 -16 0 -22 -2 -12 -5z"/>
<path d="M6796 3191 c-28 -9 -52 -23 -54 -29 -7 -21 39 -13 85 13 67 40 54 46
-31 16z"/>
<path d="M6428 3173 c7 -3 16 -2 19 1 4 3 -2 6 -13 5 -11 0 -14 -3 -6 -6z"/>
<path d="M6388 3163 c7 -3 16 -2 19 1 4 3 -2 6 -13 5 -11 0 -14 -3 -6 -6z"/>
<path d="M6318 3143 c7 -3 16 -2 19 1 4 3 -2 6 -13 5 -11 0 -14 -3 -6 -6z"/>
<path d="M6238 3123 c7 -3 16 -2 19 1 4 3 -2 6 -13 5 -11 0 -14 -3 -6 -6z"/>
<path d="M6188 3113 c7 -3 16 -2 19 1 4 3 -2 6 -13 5 -11 0 -14 -3 -6 -6z"/>
<path d="M6138 3103 c7 -3 16 -2 19 1 4 3 -2 6 -13 5 -11 0 -14 -3 -6 -6z"/>
<path d="M6356 2954 c-170 -86 -237 -110 -463 -165 -242 -59 -400 -79 -678
-86 -132 -3 -231 -10 -220 -14 11 -4 14 -8 7 -8 -7 -1 -12 -7 -11 -13 5 -41 5
-41 -138 -34 -187 9 -306 23 -448 51 -65 13 -121 22 -124 19 -2 -2 3 -4 13 -4
10 0 14 -5 10 -11 -5 -9 1 -10 20 -5 32 8 34 -1 4 -15 l-23 -10 23 5 c12 2 22
1 22 -3 0 -13 235 -50 390 -62 497 -38 1129 89 1577 317 138 71 217 117 193
113 -3 0 -72 -34 -154 -75z"/>
<path d="M6587 5603 c-86 -17 -83 -12 -50 -92 15 -35 15 -35 31 -14 10 12 37
44 60 72 24 28 42 50 40 50 -1 -1 -38 -8 -81 -16z"/>
<path d="M4151 4234 c0 -11 3 -14 6 -6 3 7 2 16 -1 19 -3 4 -6 -2 -5 -13z"/>
<path d="M6212 4530 c-59 -36 -57 -43 71 -217 34 -46 62 -81 64 -79 2 1 -4 23
-13 47 -8 24 -17 57 -19 72 -6 44 -55 197 -63 197 -4 0 -22 -9 -40 -20z m72
-141 c23 -27 33 -49 23 -49 -2 0 -18 18 -36 40 -37 47 -25 55 13 9z"/>
<path d="M4841 3757 c-2 -18 28 -74 50 -92 l24 -20 -22 26 c-25 27 -30 45 -11
33 7 -5 8 -3 4 5 -5 7 -11 10 -14 6 -3 -3 -11 7 -18 22 -7 16 -13 24 -13 20z"/>
<path d="M4923 3645 c0 -8 3 -13 5 -10 3 3 15 -3 26 -12 15 -13 14 -10 -3 10
-29 32 -28 31 -28 12z"/>
</g>
</svg>
